{"title":"The.Inside.1999.BDRip.XviD.AC3.-HQCLUB.avi","uid":12314371,"size":2665197568,"categoryP":"video","categoryS":"movies","magnet":"?xt=urn:btih:ac2a49d4658a2e6657554fcf8408ccd49410987d&amp;dn=The.Inside.1999.BDRip.XviD.AC3.-HQCLUB.avi&amp;tr=udp%3A%2F%2Ftracker.openbittorrent.com%3A80&amp;tr=udp%3A%2F%2Fopen.demonii.com%3A1337&amp;tr=udp%3A%2F%2Ftracker.coppersurfer.tk%3A6969&amp;tr=udp%3A%2F%2Fexodus.desync.com%3A6969","seeders":1,"leechers":0,"uploader":"nicukent","files":1,"time":1440962372,"description":" &lt;a href=&quot;http://i.imgur.com/AHVjCSx.jpg&quot; rel=&quot;nofollow&quot; target=&quot;_NEW&quot;&gt;http://i.imgur.com/AHVjCSx.jpg&lt;/a&gt;\n\n\nGeneral\nComplete name                            : The.Inside.1999.BDRip.XviD.AC3.-HQCLUB.avi\nFormat                                   : AVI\nFormat/Info                              : Audio Video Interleave\nFormat profile                           : OpenDML\nFile size                                : 2.48 GiB\nDuration                                 : 2h 37mn\nOverall bit rate                         : 2 252 Kbps\nMovie name                               : The Insider (1999) BDRip\nDirector                                 : kingsize87\nWriting application                      : VirtualDubMod 1.5.10.2 (build 2540/release)\nWriting library                          : VirtualDubMod build 2540/release\nCopyright                                : http://hqclub.net   HQCLUB\nComment                                  : 21.02.2013\n\nVideo\nID                                       : 0\nFormat                                   : MPEG-4 Visual\nFormat profile                           : Advanced Simple@L5\nFormat settings, BVOP                    : 1\nFormat settings, QPel                    : No\nFormat settings, GMC                     : No warppoints\nFormat settings, Matrix                  : Custom\nCodec ID                                 : XVID\nCodec ID/Hint                            : XviD\nDuration                                 : 2h 37mn\nBit rate                                 : 1 857 Kbps\nWidth                                    : 720 pixels\nHeight                                   : 304 pixels\nDisplay aspect ratio                     : 2.35:1\nFrame rate                               : 23.976 fps\nColor space                              : YUV\nChroma subsampling                       : 4:2:0\nBit depth                                : 8 bits\nScan type                                : Progressive\nCompression mode                         : Lossy\nBits/(Pixel*Frame)                       : 0.354\nStream size                              : 2.05 GiB (82%)\nWriting library                          : XviD 65\n\nAudio\nID                                       : 1\nFormat                                   : AC-3\nFormat/Info                              : Audio Coding 3\nMode extension                           : CM (complete main)\nFormat settings, Endianness              : Big\nCodec ID                                 : 2000\nDuration                                 : 2h 37mn\nBit rate mode                            : Constant\nBit rate                                 : 384 Kbps\nChannel(s)                               : 6 channels\nChannel positions                        : Front: L C R, Side: L R, LFE\nSampling rate                            : 48.0 KHz\nBit depth                                : 16 bits\nCompression mode                         : Lossy\nStream size                              : 433 MiB (17%)\nAlignment                                : Split accross interleaves\nInterleave, duration                     : 42 ms (1.00 video frame)\nInterleave, preload duration             : 500 ms\n\n\nFor more visit...: http://www.scenexpress.org","torrent":{"xt":"urn:btih:ac2a49d4658a2e6657554fcf8408ccd49410987d","amp;dn":"The.Inside.1999.BDRip.XviD.AC3.-HQCLUB.avi","amp;tr":["udp%3A%2F%2Ftracker.openbittorrent.com%3A80","udp%3A%2F%2Fopen.demonii.com%3A1337","udp%3A%2F%2Ftracker.coppersurfer.tk%3A6969","udp%3A%2F%2Fexodus.desync.com%3A6969"],"infoHash":"ac2a49d4658a2e6657554fcf8408ccd49410987d","infoHashBuffer":{"type":"Buffer","data":[172,42,73,212,101,138,46,102,87,85,79,207,132,8,204,212,148,16,152,125]},"announce":[],"urlList":[]}}